# xmcd
#
# Track frame offsets:
#	150
#	10560
#	22567
#	33960
#	44530
#	52575
#	60364
#	70062
#	78985
#	88447
#	97820
#	107604
#	122712
#	132982
#	140245
#	158317
#	167910
#	178137
#
# Disc length: 2535 seconds
#
# Revision: 1
# Processed by: cddbd v1.5.1PL0 Copyright (c) Steve Scherf et al.
# Submitted via: EasyCDDAExtractor 7.7.1.2
#
DISCID=d709e512
DTITLE=The Statler Brothers - The Essential Statler Brothers 1964-1969 (Flower
DTITLE=s On The Wall)
DYEAR=1996
DGENRE=Country
TTITLE0=The Wreck Of The Old '97
TTITLE1=Hammers And Nails
TTITLE2=I Still Miss Someone
TTITLE3=Flowers On The Wall
TTITLE4=This Ole House
TTITLE5=My Darling Hildgarde
TTITLE6=Green Grass
TTITLE7=The Right One
TTITLE8=That'll Be The Day
TTITLE9=Half A Man
TTITLE10=Ruthless
TTITLE11=Shenandoah
TTITLE12=You Can't Have Your Kate And Edith, Too
TTITLE13=Jump For Joy
TTITLE14=Sissy
TTITLE15=I'm The Boy
TTITLE16=Less Of Me
TTITLE17=Oh Happy Day
EXTD=
EXTT0=
EXTT1=
EXTT2=
EXTT3=
EXTT4=
EXTT5=
EXTT6=
EXTT7=
EXTT8=
EXTT9=
EXTT10=
EXTT11=
EXTT12=
EXTT13=
EXTT14=
EXTT15=
EXTT16=
EXTT17=
PLAYORDER=
